<mxfile host="Electron" modified="2023-09-14T10:39:00.811Z" agent="Mozilla/5.0 (Windows NT 10.0; Win64; x64) AppleWebKit/537.36 (KHTML, like Gecko) draw.io/21.6.8 Chrome/114.0.5735.289 Electron/25.5.0 Safari/537.36" etag="b_NVxBZTuIUb1ZStAnkL" version="21.6.8" type="device">
  <diagram name="Page-1" id="c4acf3e9-155e-7222-9cf6-157b1a14988f">
    <mxGraphModel dx="1434" dy="820" grid="1" gridSize="10" guides="1" tooltips="1" connect="1" arrows="1" fold="1" page="1" pageScale="1" pageWidth="850" pageHeight="1100" background="none" math="0" shadow="0">
      <root>
        <mxCell id="0" />
        <mxCell id="1" parent="0" />
        <mxCell id="t5RTrqcYdYpfxmFlwb3u-1" value="Autoturism" style="swimlane;fontStyle=1;align=center;verticalAlign=top;childLayout=stackLayout;horizontal=1;startSize=26;horizontalStack=0;resizeParent=1;resizeParentMax=0;resizeLast=0;collapsible=1;marginBottom=0;whiteSpace=wrap;html=1;" parent="1" vertex="1">
          <mxGeometry x="345" y="120" width="160" height="322" as="geometry" />
        </mxCell>
        <mxCell id="t5RTrqcYdYpfxmFlwb3u-2" value="-marca :string" style="text;strokeColor=none;fillColor=none;align=left;verticalAlign=top;spacingLeft=4;spacingRight=4;overflow=hidden;rotatable=0;points=[[0,0.5],[1,0.5]];portConstraint=eastwest;whiteSpace=wrap;html=1;" parent="t5RTrqcYdYpfxmFlwb3u-1" vertex="1">
          <mxGeometry y="26" width="160" height="26" as="geometry" />
        </mxCell>
        <mxCell id="t5RTrqcYdYpfxmFlwb3u-21" value="- anDeFabricatie :int" style="text;strokeColor=none;fillColor=none;align=left;verticalAlign=top;spacingLeft=4;spacingRight=4;overflow=hidden;rotatable=0;points=[[0,0.5],[1,0.5]];portConstraint=eastwest;whiteSpace=wrap;html=1;" parent="t5RTrqcYdYpfxmFlwb3u-1" vertex="1">
          <mxGeometry y="52" width="160" height="26" as="geometry" />
        </mxCell>
        <mxCell id="L7tXv26lwD-zpTpfDx7a-2" value="-model :string" style="text;strokeColor=none;fillColor=none;align=left;verticalAlign=top;spacingLeft=4;spacingRight=4;overflow=hidden;rotatable=0;points=[[0,0.5],[1,0.5]];portConstraint=eastwest;whiteSpace=wrap;html=1;" parent="t5RTrqcYdYpfxmFlwb3u-1" vertex="1">
          <mxGeometry y="78" width="160" height="26" as="geometry" />
        </mxCell>
        <mxCell id="oTzMdko7eZL8OAxR0sP_-1" value="&lt;u&gt;-TotalAutoturisme : int&amp;nbsp;&lt;/u&gt;" style="text;strokeColor=none;fillColor=none;align=left;verticalAlign=top;spacingLeft=4;spacingRight=4;overflow=hidden;rotatable=0;points=[[0,0.5],[1,0.5]];portConstraint=eastwest;whiteSpace=wrap;html=1;" parent="t5RTrqcYdYpfxmFlwb3u-1" vertex="1">
          <mxGeometry y="104" width="160" height="26" as="geometry" />
        </mxCell>
        <mxCell id="oTzMdko7eZL8OAxR0sP_-3" value="&lt;u&gt;-MaxPutere : int&amp;nbsp;&lt;/u&gt;" style="text;strokeColor=none;fillColor=none;align=left;verticalAlign=top;spacingLeft=4;spacingRight=4;overflow=hidden;rotatable=0;points=[[0,0.5],[1,0.5]];portConstraint=eastwest;whiteSpace=wrap;html=1;" parent="t5RTrqcYdYpfxmFlwb3u-1" vertex="1">
          <mxGeometry y="130" width="160" height="26" as="geometry" />
        </mxCell>
        <mxCell id="oTzMdko7eZL8OAxR0sP_-2" value="&lt;u&gt;-CelMaiPuternicAutoturism&amp;nbsp;: int&amp;nbsp;&lt;/u&gt;" style="text;strokeColor=none;fillColor=none;align=left;verticalAlign=top;spacingLeft=4;spacingRight=4;overflow=hidden;rotatable=0;points=[[0,0.5],[1,0.5]];portConstraint=eastwest;whiteSpace=wrap;html=1;" parent="t5RTrqcYdYpfxmFlwb3u-1" vertex="1">
          <mxGeometry y="156" width="160" height="26" as="geometry" />
        </mxCell>
        <mxCell id="L7tXv26lwD-zpTpfDx7a-3" value="- Usi" style="text;strokeColor=none;fillColor=none;align=left;verticalAlign=top;spacingLeft=4;spacingRight=4;overflow=hidden;rotatable=0;points=[[0,0.5],[1,0.5]];portConstraint=eastwest;whiteSpace=wrap;html=1;" parent="t5RTrqcYdYpfxmFlwb3u-1" vertex="1">
          <mxGeometry y="182" width="160" height="26" as="geometry" />
        </mxCell>
        <mxCell id="L7tXv26lwD-zpTpfDx7a-4" value="- Motor" style="text;strokeColor=none;fillColor=none;align=left;verticalAlign=top;spacingLeft=4;spacingRight=4;overflow=hidden;rotatable=0;points=[[0,0.5],[1,0.5]];portConstraint=eastwest;whiteSpace=wrap;html=1;" parent="t5RTrqcYdYpfxmFlwb3u-1" vertex="1">
          <mxGeometry y="208" width="160" height="26" as="geometry" />
        </mxCell>
        <mxCell id="t5RTrqcYdYpfxmFlwb3u-3" value="" style="line;strokeWidth=1;fillColor=none;align=left;verticalAlign=middle;spacingTop=-1;spacingLeft=3;spacingRight=3;rotatable=0;labelPosition=right;points=[];portConstraint=eastwest;strokeColor=inherit;" parent="t5RTrqcYdYpfxmFlwb3u-1" vertex="1">
          <mxGeometry y="234" width="160" height="8" as="geometry" />
        </mxCell>
        <mxCell id="t5RTrqcYdYpfxmFlwb3u-4" value="+GetDescription():String&lt;br&gt;+PornesteMasina():Void&lt;br&gt;+OpresteMasina():Void&lt;br&gt;+CelMaiPuternic():int" style="text;strokeColor=none;fillColor=none;align=left;verticalAlign=top;spacingLeft=4;spacingRight=4;overflow=hidden;rotatable=0;points=[[0,0.5],[1,0.5]];portConstraint=eastwest;whiteSpace=wrap;html=1;" parent="t5RTrqcYdYpfxmFlwb3u-1" vertex="1">
          <mxGeometry y="242" width="160" height="80" as="geometry" />
        </mxCell>
        <mxCell id="t5RTrqcYdYpfxmFlwb3u-5" value="Motor" style="swimlane;fontStyle=1;align=center;verticalAlign=top;childLayout=stackLayout;horizontal=1;startSize=26;horizontalStack=0;resizeParent=1;resizeParentMax=0;resizeLast=0;collapsible=1;marginBottom=0;whiteSpace=wrap;html=1;" parent="1" vertex="1">
          <mxGeometry x="50" y="260" width="160" height="232" as="geometry" />
        </mxCell>
        <mxCell id="t5RTrqcYdYpfxmFlwb3u-35" value="- capacitateCilindrica: int" style="text;strokeColor=none;fillColor=none;align=left;verticalAlign=top;spacingLeft=4;spacingRight=4;overflow=hidden;rotatable=0;points=[[0,0.5],[1,0.5]];portConstraint=eastwest;whiteSpace=wrap;html=1;" parent="t5RTrqcYdYpfxmFlwb3u-5" vertex="1">
          <mxGeometry y="26" width="160" height="26" as="geometry" />
        </mxCell>
        <mxCell id="t5RTrqcYdYpfxmFlwb3u-33" value="- putere : int&amp;nbsp;" style="text;strokeColor=none;fillColor=none;align=left;verticalAlign=top;spacingLeft=4;spacingRight=4;overflow=hidden;rotatable=0;points=[[0,0.5],[1,0.5]];portConstraint=eastwest;whiteSpace=wrap;html=1;" parent="t5RTrqcYdYpfxmFlwb3u-5" vertex="1">
          <mxGeometry y="52" width="160" height="26" as="geometry" />
        </mxCell>
        <mxCell id="t5RTrqcYdYpfxmFlwb3u-22" value="-tipCombustibil : string" style="text;strokeColor=none;fillColor=none;align=left;verticalAlign=top;spacingLeft=4;spacingRight=4;overflow=hidden;rotatable=0;points=[[0,0.5],[1,0.5]];portConstraint=eastwest;whiteSpace=wrap;html=1;" parent="t5RTrqcYdYpfxmFlwb3u-5" vertex="1">
          <mxGeometry y="78" width="160" height="26" as="geometry" />
        </mxCell>
        <mxCell id="t5RTrqcYdYpfxmFlwb3u-7" value="" style="line;strokeWidth=1;fillColor=none;align=left;verticalAlign=middle;spacingTop=-1;spacingLeft=3;spacingRight=3;rotatable=0;labelPosition=right;points=[];portConstraint=eastwest;strokeColor=inherit;" parent="t5RTrqcYdYpfxmFlwb3u-5" vertex="1">
          <mxGeometry y="104" width="160" height="76" as="geometry" />
        </mxCell>
        <mxCell id="L7tXv26lwD-zpTpfDx7a-16" value="+PornesteMotor():Void" style="text;strokeColor=none;fillColor=none;align=left;verticalAlign=top;spacingLeft=4;spacingRight=4;overflow=hidden;rotatable=0;points=[[0,0.5],[1,0.5]];portConstraint=eastwest;whiteSpace=wrap;html=1;" parent="t5RTrqcYdYpfxmFlwb3u-5" vertex="1">
          <mxGeometry y="180" width="160" height="26" as="geometry" />
        </mxCell>
        <mxCell id="L7tXv26lwD-zpTpfDx7a-14" value="+ OpresteMotor():Void" style="text;strokeColor=none;fillColor=none;align=left;verticalAlign=top;spacingLeft=4;spacingRight=4;overflow=hidden;rotatable=0;points=[[0,0.5],[1,0.5]];portConstraint=eastwest;whiteSpace=wrap;html=1;" parent="t5RTrqcYdYpfxmFlwb3u-5" vertex="1">
          <mxGeometry y="206" width="160" height="26" as="geometry" />
        </mxCell>
        <mxCell id="t5RTrqcYdYpfxmFlwb3u-9" value="Usa" style="swimlane;fontStyle=1;align=center;verticalAlign=top;childLayout=stackLayout;horizontal=1;startSize=26;horizontalStack=0;resizeParent=1;resizeParentMax=0;resizeLast=0;collapsible=1;marginBottom=0;whiteSpace=wrap;html=1;" parent="1" vertex="1">
          <mxGeometry x="640" y="290" width="160" height="202" as="geometry" />
        </mxCell>
        <mxCell id="t5RTrqcYdYpfxmFlwb3u-10" value="+ NumariUsi: int" style="text;strokeColor=none;fillColor=none;align=left;verticalAlign=top;spacingLeft=4;spacingRight=4;overflow=hidden;rotatable=0;points=[[0,0.5],[1,0.5]];portConstraint=eastwest;whiteSpace=wrap;html=1;" parent="t5RTrqcYdYpfxmFlwb3u-9" vertex="1">
          <mxGeometry y="26" width="160" height="26" as="geometry" />
        </mxCell>
        <mxCell id="t5RTrqcYdYpfxmFlwb3u-11" value="" style="line;strokeWidth=1;fillColor=none;align=left;verticalAlign=middle;spacingTop=-1;spacingLeft=3;spacingRight=3;rotatable=0;labelPosition=right;points=[];portConstraint=eastwest;strokeColor=inherit;" parent="t5RTrqcYdYpfxmFlwb3u-9" vertex="1">
          <mxGeometry y="52" width="160" height="98" as="geometry" />
        </mxCell>
        <mxCell id="L7tXv26lwD-zpTpfDx7a-20" value="+ DeschideUsa():Void" style="text;strokeColor=none;fillColor=none;align=left;verticalAlign=top;spacingLeft=4;spacingRight=4;overflow=hidden;rotatable=0;points=[[0,0.5],[1,0.5]];portConstraint=eastwest;whiteSpace=wrap;html=1;" parent="t5RTrqcYdYpfxmFlwb3u-9" vertex="1">
          <mxGeometry y="150" width="160" height="26" as="geometry" />
        </mxCell>
        <mxCell id="L7tXv26lwD-zpTpfDx7a-19" value="+ InchideUsa():Void" style="text;strokeColor=none;fillColor=none;align=left;verticalAlign=top;spacingLeft=4;spacingRight=4;overflow=hidden;rotatable=0;points=[[0,0.5],[1,0.5]];portConstraint=eastwest;whiteSpace=wrap;html=1;" parent="t5RTrqcYdYpfxmFlwb3u-9" vertex="1">
          <mxGeometry y="176" width="160" height="26" as="geometry" />
        </mxCell>
        <mxCell id="L7tXv26lwD-zpTpfDx7a-5" value="" style="endArrow=diamondThin;endFill=1;endSize=24;html=1;rounded=0;entryX=0;entryY=0.5;entryDx=0;entryDy=0;exitX=0.669;exitY=0.004;exitDx=0;exitDy=0;exitPerimeter=0;" parent="1" source="t5RTrqcYdYpfxmFlwb3u-5" target="t5RTrqcYdYpfxmFlwb3u-2" edge="1">
          <mxGeometry width="160" relative="1" as="geometry">
            <mxPoint x="285.96000000000004" y="49.99800000000005" as="sourcePoint" />
            <mxPoint x="70" y="171" as="targetPoint" />
          </mxGeometry>
        </mxCell>
        <mxCell id="L7tXv26lwD-zpTpfDx7a-6" value="" style="endArrow=diamondThin;endFill=1;endSize=24;html=1;rounded=0;entryX=1.019;entryY=0.077;entryDx=0;entryDy=0;entryPerimeter=0;" parent="1" target="t5RTrqcYdYpfxmFlwb3u-21" edge="1">
          <mxGeometry width="160" relative="1" as="geometry">
            <mxPoint x="690" y="280" as="sourcePoint" />
            <mxPoint x="770.04" y="249.99999999999991" as="targetPoint" />
          </mxGeometry>
        </mxCell>
        <mxCell id="L7tXv26lwD-zpTpfDx7a-7" value="1" style="text;html=1;align=center;verticalAlign=middle;resizable=0;points=[];autosize=1;strokeColor=none;fillColor=none;" parent="1" vertex="1">
          <mxGeometry x="315" y="118" width="30" height="30" as="geometry" />
        </mxCell>
        <mxCell id="L7tXv26lwD-zpTpfDx7a-8" value="1" style="text;html=1;align=center;verticalAlign=middle;resizable=0;points=[];autosize=1;strokeColor=none;fillColor=none;" parent="1" vertex="1">
          <mxGeometry x="130" y="220" width="30" height="30" as="geometry" />
        </mxCell>
        <mxCell id="L7tXv26lwD-zpTpfDx7a-9" value="1" style="text;html=1;align=center;verticalAlign=middle;resizable=0;points=[];autosize=1;strokeColor=none;fillColor=none;" parent="1" vertex="1">
          <mxGeometry x="505" y="128" width="30" height="30" as="geometry" />
        </mxCell>
        <mxCell id="L7tXv26lwD-zpTpfDx7a-10" value="1" style="text;html=1;align=center;verticalAlign=middle;resizable=0;points=[];autosize=1;strokeColor=none;fillColor=none;" parent="1" vertex="1">
          <mxGeometry x="705" y="268" width="30" height="30" as="geometry" />
        </mxCell>
      </root>
    </mxGraphModel>
  </diagram>
</mxfile>
